<svg width="100%" height="100%" viewBox="0 0 65535 21845" xmlns="http://www.w3.org/2000/svg">
  <path fill="transparent" stroke="black" stroke-width="1920" stroke-linecap="round" stroke-linejoin="round" d="M 7215 4365.333333333333 l 0 0" />
  <path fill="transparent" stroke="black" stroke-width="1920" stroke-linecap="round" stroke-linejoin="round" d="M 14687 14924 l 0 0" />
  <path fill="transparent" stroke="black" stroke-width="1920" stroke-linecap="round" stroke-linejoin="round" d="M 54317 20469.333333333332 l 0 0" />
  <path fill="transparent" stroke="black" stroke-width="1920" stroke-linecap="round" stroke-linejoin="round" d="M 32660 11234.666666666666 L 42312 2695.333333333333 L 50157 556.6666666666666 L 42874 13196 L 48889 6787 L 55143 1755 l 0 0" />
  <path fill="transparent" stroke="black" stroke-width="1920" stroke-linecap="round" stroke-linejoin="round" d="M 26189 8031.333333333333 L 23309 8031.333333333333 L 21869 9471.333333333332 L 21869 12351.333333333332 L 23309 13791.333333333332 L 26189 13791.333333333332 l 0 0" />
  <path fill="transparent" stroke="black" stroke-width="1920" stroke-linecap="round" stroke-linejoin="round" d="M 26075 5380 L 24635 5380 L 24635 11140 L 26075 11140 l 0 0" />
  <path fill="transparent" stroke="black" stroke-width="1920" stroke-linecap="round" stroke-linejoin="round" d="M 14922 7518.666666666666 L 12042 7518.666666666666 L 10602 6078.666666666666 L 10602 3198.6666666666665 L 12042 1758.6666666666665 L 14922 1758.6666666666665 L 16362 3198.6666666666665 L 16362 5358.666666666666 L 13482 5358.666666666666 L 13482 3918.6666666666665 l 0 0" />
</svg>