<svg width="100%" height="100%" viewBox="0 0 65535 21845" xmlns="http://www.w3.org/2000/svg">
  <path fill="transparent" stroke="black" stroke-width="1920" stroke-linecap="round" stroke-linejoin="round" d="M 960 960 L 960 6693.333333333333 l 0 0" />
  <path fill="transparent" stroke="black" stroke-width="1920" stroke-linecap="round" stroke-linejoin="round" d="M 5260 960 L 5260 6693.333333333333 l 0 0" />
  <path fill="transparent" stroke="black" stroke-width="1920" stroke-linecap="round" stroke-linejoin="round" d="M 960 3826.6666666666665 L 5260 3826.6666666666665 l 0 0" />
  <path fill="transparent" stroke="black" stroke-width="1920" stroke-linecap="round" stroke-linejoin="round" d="M 8126 6693.333333333333 L 8126 960 L 10993 960 L 12426 2393.333333333333 L 10993 3826.6666666666665 L 9560 3826.6666666666665 L 12426 6693.333333333333 l 0 0" />
  <path fill="transparent" stroke="black" stroke-width="1920" stroke-linecap="round" stroke-linejoin="round" d="M 15293 6693.333333333333 L 15293 960 L 18160 3826.6666666666665 L 21027 960 L 21027 6693.333333333333 l 0 0" />
  <path fill="transparent" stroke="black" stroke-width="1920" stroke-linecap="round" stroke-linejoin="round" d="M 23893 3826.6666666666665 L 26760 3826.6666666666665 l 0 0" />
  <path fill="transparent" stroke="black" stroke-width="1920" stroke-linecap="round" stroke-linejoin="round" d="M 29627 960 L 32493 960 L 33927 2393.333333333333 L 33927 5260 L 32493 6693.333333333333 L 29627 6693.333333333333 L 29627 960 l 0 0" />
  <path fill="transparent" stroke="black" stroke-width="1920" stroke-linecap="round" stroke-linejoin="round" d="M 36793 6693.333333333333 L 36793 960 L 39660 960 L 41094 2393.333333333333 L 39660 3826.6666666666665 L 38227 3826.6666666666665 L 41094 6693.333333333333 l 0 0" />
  <path fill="transparent" stroke="black" stroke-width="1920" stroke-linecap="round" stroke-linejoin="round" d="M 43960 6693.333333333333 L 43960 2393.333333333333 L 45394 960 L 46827 960 L 48260 2393.333333333333 L 48260 6693.333333333333 l 0 0" />
  <path fill="transparent" stroke="black" stroke-width="1920" stroke-linecap="round" stroke-linejoin="round" d="M 43960 3826.6666666666665 L 48260 3826.6666666666665 l 0 0" />
  <path fill="transparent" stroke="black" stroke-width="1920" stroke-linecap="round" stroke-linejoin="round" d="M 51127 960 L 53277 6693.333333333333 L 55427 960 L 57577 6693.333333333333 L 59727 960 l 0 0" />
  <path fill="transparent" stroke="black" stroke-width="1920" stroke-linecap="round" stroke-linejoin="round" d="M 25430 18209.333333333332 L 27516 18384.333333333332 L 28838 17492.666666666664 l 0 0" />
  <path fill="transparent" stroke="black" stroke-width="1920" stroke-linecap="round" stroke-linejoin="round" d="M 31402 10294 L 29619 8860.666666666666 L 26832 7761.666666666666 L 23822 7921 L 20509 9211 L 18152 12237 L 17881 15183.333333333332 L 19330 18193.333333333332 L 21576 19977 L 25080 20885 L 27739 20582.333333333332 L 30526 19180.666666666664 L 32406 16887.333333333332 L 32979 14673.666666666666 l 0 0" />
  <path fill="transparent" stroke="black" stroke-width="1920" stroke-linecap="round" stroke-linejoin="round" d="M 29587 10485 L 31164 10246 L 32979 10962.666666666666 L 33552 12698.666666666666 L 33091 14530.333333333332 L 31578 15645 L 29730 15565.333333333332 L 28265 14211.666666666666 L 27978 11918.333333333332 L 29475 10532.666666666666 l 0 0" />
  <path fill="transparent" stroke="black" stroke-width="1920" stroke-linecap="round" stroke-linejoin="round" d="M 20636 11727.333333333332 L 22388 10867.333333333332 L 24538 11217.666666666666 L 25876 12555.333333333332 L 26195 14578 L 24666 16425.333333333332 L 22500 16855.666666666664 L 20636 16091 L 19697 13988.666666666666 L 20636 11727.333333333332 l 0 0" />
  <path fill="transparent" stroke="black" stroke-width="1920" stroke-linecap="round" stroke-linejoin="round" d="M 22962 13861.333333333332 l 0 0" />
  <path fill="transparent" stroke="black" stroke-width="1920" stroke-linecap="round" stroke-linejoin="round" d="M 30988 12953.666666666666 l 0 0" />
</svg>